<?xml version="1.0" encoding="UTF-8" standalone="no"?>
<svg width="120px" height="120px" viewBox="0 0 120 120" version="1.1" xmlns="http://www.w3.org/2000/svg" xmlns:xlink="http://www.w3.org/1999/xlink" style="background: #FFFFFF;">
    <!-- Generator: Sketch 39.1 (31720) - http://www.bohemiancoding.com/sketch -->
    <title>120x120</title>
    <desc>Created with Sketch.</desc>
    <defs>
        <linearGradient x1="-10.2651641%" y1="-33.7568296%" x2="-11.6483487%" y2="73.1594334%" id="linearGradient-1">
            <stop stop-color="#35485F" offset="0%"></stop>
            <stop stop-color="#394B82" offset="33.9405293%"></stop>
            <stop stop-color="#3697DB" offset="67.323023%"></stop>
            <stop stop-color="#BE9C86" offset="100%"></stop>
        </linearGradient>
        <linearGradient x1="-10.2651641%" y1="6.4741107%" x2="-11.6483487%" y2="62.0352566%" id="linearGradient-2">
            <stop stop-color="#35485F" offset="0%"></stop>
            <stop stop-color="#394B82" offset="33.9405293%"></stop>
            <stop stop-color="#3697DB" offset="67.323023%"></stop>
            <stop stop-color="#BE9C86" offset="100%"></stop>
        </linearGradient>
        <linearGradient x1="-10.2651641%" y1="6.47899233%" x2="-11.6483487%" y2="62.0339068%" id="linearGradient-3">
            <stop stop-color="#35485F" offset="0%"></stop>
            <stop stop-color="#394B82" offset="33.9405293%"></stop>
            <stop stop-color="#3697DB" offset="67.323023%"></stop>
            <stop stop-color="#BE9C86" offset="100%"></stop>
        </linearGradient>
        <linearGradient x1="-10.2651641%" y1="27.750895%" x2="-11.6483487%" y2="56.1520555%" id="linearGradient-4">
            <stop stop-color="#35485F" offset="0%"></stop>
            <stop stop-color="#394B82" offset="33.9405293%"></stop>
            <stop stop-color="#3697DB" offset="67.323023%"></stop>
            <stop stop-color="#BE9C86" offset="100%"></stop>
        </linearGradient>
        <linearGradient x1="-10.2651641%" y1="27.7437685%" x2="-11.6483487%" y2="56.1540261%" id="linearGradient-5">
            <stop stop-color="#35485F" offset="0%"></stop>
            <stop stop-color="#394B82" offset="33.9405293%"></stop>
            <stop stop-color="#3697DB" offset="67.323023%"></stop>
            <stop stop-color="#BE9C86" offset="100%"></stop>
        </linearGradient>
        <linearGradient x1="-10.2651641%" y1="27.7544577%" x2="-11.6483487%" y2="56.1510704%" id="linearGradient-6">
            <stop stop-color="#35485F" offset="0%"></stop>
            <stop stop-color="#394B82" offset="33.9405293%"></stop>
            <stop stop-color="#3697DB" offset="67.323023%"></stop>
            <stop stop-color="#BE9C86" offset="100%"></stop>
        </linearGradient>
        <linearGradient x1="33.2153169%" y1="-71.1670367%" x2="32.8300808%" y2="83.503655%" id="linearGradient-7">
            <stop stop-color="#35485F" offset="0%"></stop>
            <stop stop-color="#394B82" offset="33.9405293%"></stop>
            <stop stop-color="#3697DB" offset="67.323023%"></stop>
            <stop stop-color="#BE9C86" offset="100%"></stop>
        </linearGradient>
    </defs>
    <g id="Symbols" stroke="none" stroke-width="1" fill="none" fill-rule="evenodd">
        <g id="120x120">
            <g id="Rectangle-11" fill="#FFFFFF">
                <rect x="0" y="0" width="120" height="120"></rect>
            </g>
            <g id="AppIconBlack1536x" transform="translate(17.000000, 8.000000)">
                <g id="Page-1">
                    <g>
                        <g id="Artboard">
                            <g id="AppIconBlack1536x">
                                <g id="noun_746">
                                    <g id="Page-1">
                                        <g id="Artboard">
                                            <g id="noun_746">
                                                <g id="Group">
                                                    <g id="Shape" transform="translate(0.000000, 42.969230)">
                                                        <path d="M77.0159771,21.883317 L77.0159771,4.51527182 C77.0159771,2.05256918 79.0345806,0.045425201 81.5141651,0.045425201 C83.9854822,0.045425201 85.9865145,2.05256918 85.9865145,4.51527182 L85.9865145,28.2993598 C85.9865145,31.5884728 84.8009856,34.7618882 82.6769558,37.2431851 L67.8356203,52.9945652 C66.3648201,54.3788023 66.0020296,55.6060216 66.0020296,57.4654447 L66.0020296,60.3320554 L49.8521681,60.3320554 L49.8325298,53.5100385 C49.8325298,50.9109782 49.6206436,47.440055 52.8764557,44.0331786 L71.7053853,25.1373075 C72.3730857,24.4906414 73.2557721,24.137351 74.1860042,24.137351 C76.1549952,24.137351 77.7580955,25.7343889 77.7580955,27.7002124 C77.7580955,28.5493489 77.4562866,29.3736931 76.9074504,30.0224253 L67.826318,39.7451423 C67.2402718,40.4351948 66.24389,41.736791 65.7477662,43.3307299 C65.4790325,44.1550741 65.4025468,44.9628902 65.3901437,45.8864036 L68.3100387,45.8864036 C68.3234754,45.2273415 68.3720541,44.6994719 68.5291602,44.2077578 C68.8154649,43.2863103 69.3849733,42.461966 69.8118468,41.9320305 L79.0335469,31.8198676 C80.1932359,30.6525631 80.8257939,29.1371332 80.8257939,27.5493925 C80.8278606,25.1620998 79.3911689,22.9669475 77.0159771,21.883317 L77.0159771,21.883317 L77.0159771,21.883317 L77.0159771,21.883317 Z" fill="url(#linearGradient-2)"></path>
                                                        <path d="M8.9695039,21.883317 L8.9695039,4.51527182 C8.9695039,2.05256918 6.94986686,0.045425201 4.47028169,0.045425201 C1.99999886,0.0464582139 0,2.05256918 0,4.51527182 L0,28.2993598 C0,31.5884728 1.18449545,34.7618882 3.30852524,37.2431851 L18.1488269,52.9924991 C19.6206607,54.3788023 19.9803504,55.6060216 19.9803504,57.4654447 L19.9803504,60.3320554 L36.1333128,60.3320554 L36.1519174,53.5100385 C36.1519174,50.9109782 36.3648372,47.440055 33.1100587,44.0331786 L14.283196,25.1383405 C13.6092946,24.4927074 12.7286749,24.14045 11.80051,24.14045 C9.83048541,24.14045 8.22635192,25.7374879 8.22635192,27.7022784 C8.22635192,28.5514149 8.52816059,29.3767922 9.07699746,30.0244913 L18.16123,39.7482413 C18.7483098,40.4372608 19.743658,41.736791 20.2387482,43.3307299 C20.5054147,44.1561071 20.5808669,44.9628902 20.5974043,45.8874366 L17.6744085,45.8874366 C17.6620055,45.2273415 17.612393,44.6994719 17.4563208,44.2077578 C17.1710497,43.2873433 16.6005074,42.4640321 16.1726006,41.9351295 L6.95090042,31.8198676 C5.79017758,30.6525631 5.15865339,29.1371332 5.15865339,27.5493925 C5.1576198,25.1620998 6.59121072,22.9669475 8.9695039,21.883317 L8.9695039,21.883317 L8.9695039,21.883317 L8.9695039,21.883317 Z" fill="url(#linearGradient-3)"></path>
                                                    </g>
                                                    <path d="M27.4573487,16.8412085 C29.0253065,17.8855846 30.8030833,19.0704503 30.8030833,20.0693738 C30.8030833,21.77901 29.729182,23.3688168 28.6924902,24.9049069 C27.6144545,26.5040108 26.4992097,28.1568314 26.4992097,30.1040606 L30.8030833,30.1040606 C30.8030833,29.4718568 31.5431345,28.3727311 32.2614804,27.3087279 C33.5265959,25.4317435 35.103856,23.0950684 35.103856,20.0693738 C35.103856,16.7688977 32.1880954,14.8247675 29.8449442,13.263885 C28.275953,12.218476 26.4992097,11.0346433 26.4992097,10.0357199 C26.4992097,8.67007692 27.1534729,7.72900221 28.220139,6.30860951 C29.3715596,4.77561843 30.8030833,2.86764368 30.8030833,0 L26.4992097,0 C26.4992097,1.365643 25.8449466,2.30671771 24.7772469,3.72711038 C23.62686,5.26010146 22.1953362,7.16807618 22.1953362,10.0357199 C22.1963698,13.336196 25.113164,15.2792931 27.4573487,16.8412085 L27.4573487,16.8412085 L27.4573487,16.8412085 L27.4573487,16.8412085 Z" id="Shape" fill="url(#linearGradient-4)"></path>
                                                    <path d="M41.8015266,16.8412085 C43.3684508,17.8855846 45.1441603,19.0704503 45.1441603,20.0693738 C45.1441603,21.77901 44.07336,23.3688168 43.0366681,24.9049069 C41.9575988,26.5040108 40.842354,28.1568314 40.842354,30.1040606 L45.1441603,30.1040606 C45.1441603,29.4718568 45.8873124,28.3727311 46.6025574,27.3087279 C47.8707738,25.4317435 49.4480339,23.0950684 49.4480339,20.0693738 C49.4480339,16.7688977 46.5302062,14.8247675 44.1860214,13.263885 C42.6190972,12.218476 40.842354,11.0346433 40.842354,10.0357199 C40.842354,8.67007692 41.4966172,7.72900221 42.5622497,6.30860951 C43.7136702,4.77561843 45.1441603,2.86764368 45.1441603,0 L40.842354,0 C40.842354,1.365643 40.1880908,2.30671771 39.1193576,3.72711038 C37.9700043,5.26010146 36.5374469,7.16807618 36.5374469,10.0357199 C36.5395141,13.336196 39.4563083,15.2792931 41.8015266,16.8412085 L41.8015266,16.8412085 L41.8015266,16.8412085 L41.8015266,16.8412085 Z" id="Shape" fill="url(#linearGradient-5)"></path>
                                                    <path d="M56.1426038,16.8412085 C57.7126287,17.8855846 59.4883383,19.0704503 59.4883383,20.0693738 C59.4883383,21.77901 58.4154707,23.3688168 57.3787788,24.9049069 C56.3007431,26.5040108 55.1844647,28.1568314 55.1844647,30.1040606 L59.4883383,30.1040606 C59.4883383,29.4718568 60.2294231,28.3727311 60.9467354,27.3087279 C62.2139181,25.4317435 63.7901447,23.0950684 63.7901447,20.0693738 C63.7901447,16.7688977 60.874384,14.8247675 58.5291657,13.263885 C56.9612079,12.218476 55.1844647,11.0346433 55.1844647,10.0357199 C55.1844647,8.67007692 55.8387279,7.72900221 56.9064276,6.30860951 C58.055781,4.77561843 59.4883383,2.86764368 59.4883383,0 L55.1844647,0 C55.1844647,1.365643 54.5302015,2.30671771 53.4645691,3.72711038 C52.3141822,5.26010146 50.8826584,7.16807618 50.8826584,10.0357199 C50.8826584,13.336196 53.7994526,15.2792931 56.1426038,16.8412085 L56.1426038,16.8412085 L56.1426038,16.8412085 L56.1426038,16.8412085 Z" id="Shape" fill="url(#linearGradient-6)"></path>
                                                    <path d="M74.8960813,26.8139147 C69.2526736,29.8199821 63.6113333,32.8291485 57.9668921,35.838315 L14.3080022,35.838315 C14.3080022,46.4587202 21.467688,53.8210028 30.0837038,57.5005946 L30.0837038,58.7722334 C30.0837038,59.5645543 30.7255639,60.2060552 31.5183283,60.2060552 L54.4671525,60.2060552 C55.2609505,60.2060552 55.9028106,59.5645543 55.9028106,58.7722334 L55.9028106,57.5005946 C64.51986,53.8210028 71.6785124,46.4587202 71.6785124,35.838315 L67.1028042,35.838315 C70.4237325,34.066698 73.745694,32.2981799 77.0676562,30.5265629 C79.5162338,29.2218676 77.3446589,25.5092195 74.8960813,26.8139147 L74.8960813,26.8139147 L74.8960813,26.8139147 L74.8960813,26.8139147 Z" id="Shape" fill="url(#linearGradient-7)"></path>
                                                </g>
                                            </g>
                                        </g>
                                    </g>
                                </g>
                            </g>
                        </g>
                    </g>
                </g>
            </g>
        </g>
        <g id="THE-GRID-(Hide-Before-Export)" transform="translate(-1968.000000, -30.000000)" stroke="#E1E7E7" stroke-width="0.5">
            <path d="M1968,30.0829114 L1968.08279,30 L2088,149.917089 L2087.91709,150 L1968,30.0829114 L1968,30.0829114 Z M2087.91709,30 L2088,30.0829114 L1968.08279,150 L1968,149.917089 L2087.91709,30 L2087.91709,30 Z M1968,89.6648045 L2087.32961,89.6648045 L2087.32961,89.781536 L1968,89.781536 L1968,89.6648045 Z M2027.6648,30 L2027.78154,30 L2027.78154,149.329609 L2027.6648,149.329609 L2027.6648,30 Z M2079.95531,30 L2080.07204,30 L2080.07204,149.329609 L2079.95531,149.329609 L2079.95531,30 Z M1976.04469,30 L1976.16142,30 L1976.16142,149.329609 L1976.04469,149.329609 L1976.04469,30 Z M2005.5419,30 L2005.65863,30 L2005.65863,149.329609 L2005.5419,149.329609 L2005.5419,30 Z M2050.4581,30 L2050.57483,30 L2050.57483,149.329609 L2050.4581,149.329609 L2050.4581,30 Z M1968,112.458101 L2087.32961,112.458101 L2087.32961,112.574832 L1968,112.574832 L1968,112.458101 Z M1968,67.5418994 L2087.32961,67.5418994 L2087.32961,67.658631 L1968,67.658631 L1968,67.5418994 Z M1968,141.955307 L2087.32961,141.955307 L2087.32961,142.072039 L1968,142.072039 L1968,141.955307 Z M1968,38.0446927 L2087.32961,38.0446927 L2087.32961,38.1614243 L1968,38.1614243 L1968,38.0446927 Z M2027.6648,57.4860335 C2045.43661,57.4860335 2059.84358,71.8929958 2059.84358,89.6648045 C2059.84358,107.436613 2045.43661,121.843575 2027.6648,121.843575 C2009.893,121.843575 1995.48603,107.436613 1995.48603,89.6648045 C1995.48603,71.8929958 2009.893,57.4860335 2027.6648,57.4860335 L2027.6648,57.4860335 Z M2028,38.0446927 C2056.69416,38.0446927 2079.95531,61.3058427 2079.95531,90 C2079.95531,118.694157 2056.69416,141.955307 2028,141.955307 C1999.30584,141.955307 1976.04469,118.694157 1976.04469,90 C1976.04469,61.3058427 1999.30584,38.0446927 2028,38.0446927 L2028,38.0446927 Z" id="Imported-Layers-Copy-2"></path>
        </g>
    </g>
</svg>